<?xml version="1.0" encoding="UTF-8"?>
<!DOCTYPE svg PUBLIC "-//W3C//DTD SVG 1.1//EN" "http://www.w3.org/Graphics/SVG/1.1/DTD/svg11.dtd">
<svg xmlns="http://www.w3.org/2000/svg" version="1.1" width="399px" height="181px" style="shape-rendering:geometricPrecision; text-rendering:geometricPrecision; image-rendering:optimizeQuality; fill-rule:evenodd; clip-rule:evenodd" xmlns:xlink="http://www.w3.org/1999/xlink">
<g><path style="opacity:0.757" fill="#836f55" d="M 190.5,29.5 C 194.646,28.353 198.98,28.1864 203.5,29C 205.324,29.66 206.657,30.8267 207.5,32.5C 202.244,29.8023 196.577,28.8023 190.5,29.5 Z"/></g>
<g><path style="opacity:0.981" fill="#1b1837" d="M 190.5,29.5 C 196.577,28.8023 202.244,29.8023 207.5,32.5C 209.446,33.0347 210.446,34.368 210.5,36.5C 210.427,38.0269 211.094,39.0269 212.5,39.5C 212.5,39.8333 212.5,40.1667 212.5,40.5C 212.263,41.791 212.596,42.791 213.5,43.5C 213.5,45.5 213.5,47.5 213.5,49.5C 213.167,49.5 212.833,49.5 212.5,49.5C 210.929,51.6351 209.596,53.9684 208.5,56.5C 208.5,57.1667 208.167,57.5 207.5,57.5C 205.566,58.1103 203.899,59.1103 202.5,60.5C 198.212,62.8758 193.879,62.8758 189.5,60.5C 188.461,58.4689 186.795,57.1355 184.5,56.5C 184.167,55.5 183.5,54.8333 182.5,54.5C 181.249,51.8677 180.249,49.201 179.5,46.5C 179.5,44.8333 179.5,43.1667 179.5,41.5C 180.338,41.1583 180.672,40.4916 180.5,39.5C 183.5,35.8333 186.833,32.5 190.5,29.5 Z"/></g>
<g><path style="opacity:0.651" fill="#716251" d="M 190.5,29.5 C 186.833,32.5 183.5,35.8333 180.5,39.5C 182.202,34.4647 185.535,31.1314 190.5,29.5 Z"/></g>
<g><path style="opacity:0.999" fill="#c7a664" d="M 191.5,32.5 C 204.157,31.3244 209.99,36.9911 209,49.5C 206.833,52.3333 204.333,54.8333 201.5,57C 188.59,59.0159 182.756,53.5159 184,40.5C 186.028,37.3078 188.528,34.6411 191.5,32.5 Z"/></g>
<g><path style="opacity:0.959" fill="#2a213b" d="M 216.5,32.5 C 215.83,35.5031 214.163,36.1697 211.5,34.5C 211.176,31.3198 212.51,30.1531 215.5,31C 216.056,31.3826 216.389,31.8826 216.5,32.5 Z"/></g>
<g><path style="opacity:0.475" fill="#977f57" d="M 216.5,32.5 C 219.07,33.484 219.07,34.6507 216.5,36C 219.62,38.4077 220.953,41.5743 220.5,45.5C 218.585,45.7845 216.919,45.4511 215.5,44.5C 216.978,44.762 218.311,44.4287 219.5,43.5C 218.586,41.3359 217.419,39.3359 216,37.5C 214.812,38.5634 214.312,39.8967 214.5,41.5C 213.662,41.8417 213.328,42.5084 213.5,43.5C 212.596,42.791 212.263,41.791 212.5,40.5C 213.423,36.5277 213.423,36.1944 212.5,39.5C 211.094,39.0269 210.427,38.0269 210.5,36.5C 211.338,36.1583 211.672,35.4916 211.5,34.5C 214.163,36.1697 215.83,35.5031 216.5,32.5 Z"/></g>
<g><path style="opacity:0.979" fill="#171535" d="M 179.5,40.5 C 179.5,40.8333 179.5,41.1667 179.5,41.5C 178.833,42.1667 178.167,42.8333 177.5,43.5C 172.883,43.6427 172.216,41.976 175.5,38.5C 176.325,37.6143 177.325,37.281 178.5,37.5C 178.263,38.791 178.596,39.791 179.5,40.5 Z"/></g>
<g><path style="opacity:0.986" fill="#1a1737" d="M 215.5,44.5 C 214.89,43.609 214.557,42.609 214.5,41.5C 214.312,39.8967 214.812,38.5634 216,37.5C 217.419,39.3359 218.586,41.3359 219.5,43.5C 218.311,44.4287 216.978,44.762 215.5,44.5 Z"/></g>
<g><path style="opacity:0.702" fill="#9b7e5a" d="M 179.5,40.5 C 178.596,39.791 178.263,38.791 178.5,37.5C 177.325,37.281 176.325,37.6143 175.5,38.5C 172.216,41.976 172.883,43.6427 177.5,43.5C 176.545,45.7099 175.045,46.0432 173,44.5C 172.448,41.5808 173.115,38.9141 175,36.5C 178.319,35.3559 179.819,36.6893 179.5,40.5 Z"/></g>
<g><path style="opacity:0.647" fill="#554d47" d="M 169.5,47.5 C 172.5,46.1667 175.5,46.1667 178.5,47.5C 176.721,49.3435 174.388,50.0102 171.5,49.5C 173.292,48.6909 175.292,48.1909 177.5,48C 174.854,47.5026 172.187,47.3359 169.5,47.5 Z"/></g>
<g><path style="opacity:0.999" fill="#2c233b" d="M 195.5,36.5 C 197.936,36.7489 199.936,37.7489 201.5,39.5C 200.311,40.4287 198.978,40.762 197.5,40.5C 197.5,41.8333 197.5,43.1667 197.5,44.5C 203.245,45.9792 203.911,48.8125 199.5,53C 197.231,54.7241 194.897,54.7241 192.5,53C 191.027,52.2904 190.36,51.1238 190.5,49.5C 192.167,49.5 193.833,49.5 195.5,49.5C 194.017,47.1562 192.684,44.6562 191.5,42C 191.901,39.44 193.234,37.6066 195.5,36.5 Z"/></g>
<g><path style="opacity:0.964" fill="#c2a363" d="M 179.5,46.5 C 180.249,49.201 181.249,51.8677 182.5,54.5C 183.5,54.8333 184.167,55.5 184.5,56.5C 183.761,56.369 183.094,56.5357 182.5,57C 181.262,57.69 181.262,58.19 182.5,58.5C 182.366,60.2915 182.699,61.9582 183.5,63.5C 181.821,63.7148 180.821,63.0481 180.5,61.5C 180.683,55.6836 179.35,55.1836 176.5,60C 168.992,61.1412 166.492,57.9745 169,50.5C 169.671,49.7476 170.504,49.4142 171.5,49.5C 174.388,50.0102 176.721,49.3435 178.5,47.5C 179.167,47.5 179.5,47.1667 179.5,46.5 Z"/></g>
<g><path style="opacity:0.956" fill="#3e3340" d="M 217.5,47.5 C 224.786,44.8109 229.119,47.3109 230.5,55C 230.693,57.0081 230.026,58.5081 228.5,59.5C 228.167,58.5 227.5,57.8333 226.5,57.5C 227.73,51.5148 225.396,48.8482 219.5,49.5C 220.952,48.6981 222.618,48.1981 224.5,48C 222.19,47.5034 219.857,47.3367 217.5,47.5 Z"/></g>
<g><path style="opacity:0.998" fill="#cdab65" d="M 219.5,49.5 C 225.396,48.8482 227.73,51.5148 226.5,57.5C 219.393,62.276 216.226,60.276 217,51.5C 217.708,50.6195 218.542,49.9528 219.5,49.5 Z"/></g>
<g><path style="opacity:0.988" fill="#1a1737" d="M 217.5,47.5 C 219.857,47.3367 222.19,47.5034 224.5,48C 222.618,48.1981 220.952,48.6981 219.5,49.5C 218.542,49.9528 217.708,50.6195 217,51.5C 216.226,60.276 219.393,62.276 226.5,57.5C 227.5,57.8333 228.167,58.5 228.5,59.5C 228.672,60.4916 228.338,61.1583 227.5,61.5C 227.565,61.0618 227.399,60.7284 227,60.5C 221.573,63.5177 217.073,62.5177 213.5,57.5C 212.833,57.5 212.5,57.1667 212.5,56.5C 213.871,54.064 214.871,51.3973 215.5,48.5C 215.842,47.6618 216.508,47.3284 217.5,47.5 Z"/></g>
<g><path style="opacity:0.365" fill="#786752" d="M 215.5,48.5 C 214.871,51.3973 213.871,54.064 212.5,56.5C 212.657,55.1266 212.49,53.7932 212,52.5C 211.502,54.5444 210.335,55.8777 208.5,56.5C 209.596,53.9684 210.929,51.6351 212.5,49.5C 212.833,52.1667 213.167,52.1667 213.5,49.5C 214.167,49.1667 214.833,48.8333 215.5,48.5 Z"/></g>
<g><path style="opacity:0.722" fill="#ad9657" d="M 168.5,47.5 C 166.377,51.6932 166.044,56.0265 167.5,60.5C 165.492,59.3839 164.492,57.5506 164.5,55C 164.624,51.748 165.958,49.248 168.5,47.5 Z"/></g>
<g><path style="opacity:0.91" fill="#211c39" d="M 168.5,47.5 C 168.833,47.5 169.167,47.5 169.5,47.5C 172.187,47.3359 174.854,47.5026 177.5,48C 175.292,48.1909 173.292,48.6909 171.5,49.5C 170.504,49.4142 169.671,49.7476 169,50.5C 166.492,57.9745 168.992,61.1412 176.5,60C 179.35,55.1836 180.683,55.6836 180.5,61.5C 179.833,61.5 179.167,61.5 178.5,61.5C 174.863,62.4144 171.53,62.4144 168.5,61.5C 167.833,61.5 167.5,61.1667 167.5,60.5C 166.044,56.0265 166.377,51.6932 168.5,47.5 Z"/></g>
<g><path style="opacity:0.8" fill="#473b42" d="M 171.5,50.5 C 172.873,50.3433 174.207,50.51 175.5,51C 175.043,51.414 174.709,51.914 174.5,52.5C 178.127,54.4641 178.293,56.4641 175,58.5C 173.189,57.5765 173.355,56.7431 175.5,56C 171.105,56.1276 169.771,54.2943 171.5,50.5 Z"/></g>
<g><path style="opacity:0.989" fill="#1e1a38" d="M 152.5,58.5 C 157.16,59.3303 161.493,60.9969 165.5,63.5C 168.053,65.5837 171.053,66.917 174.5,67.5C 174.5,68.5 174.5,69.5 174.5,70.5C 178.548,70.6054 182.548,70.2721 186.5,69.5C 187.251,70.5735 188.251,70.7401 189.5,70C 191.544,69.5017 192.878,68.335 193.5,66.5C 197.243,63.5766 201.576,62.7433 206.5,64C 209.672,65.7519 212.672,67.7519 215.5,70C 217.473,70.4955 219.473,70.6621 221.5,70.5C 221.238,69.0222 221.571,67.6888 222.5,66.5C 229.223,63.0377 236.223,60.3711 243.5,58.5C 245.288,58.2148 246.955,58.5481 248.5,59.5C 242.154,63.007 235.487,65.8403 228.5,68C 226.82,68.3468 225.82,69.3468 225.5,71C 229.137,80.746 232.471,90.5793 235.5,100.5C 243.736,97.3533 252.069,94.3533 260.5,91.5C 260.649,92.552 260.483,93.552 260,94.5C 257.176,95.8181 254.676,97.4848 252.5,99.5C 246.984,101.395 241.484,103.395 236,105.5C 233.725,105.722 232.559,104.722 232.5,102.5C 231.923,100.348 230.756,100.015 229,101.5C 228.308,102.437 228.475,103.103 229.5,103.5C 228.89,104.391 228.557,105.391 228.5,106.5C 226.973,106.427 225.973,107.094 225.5,108.5C 221.671,112.994 217.004,116.328 211.5,118.5C 209.287,119.605 207.12,119.605 205,118.5C 203.348,119.399 201.848,120.399 200.5,121.5C 199.833,121.5 199.167,121.5 198.5,121.5C 195.845,118.77 192.845,118.104 189.5,119.5C 185.37,117.387 181.037,115.72 176.5,114.5C 173.943,112.968 171.443,111.301 169,109.5C 168.503,106.854 168.336,104.187 168.5,101.5C 165.956,98.7249 163.956,99.2249 162.5,103C 160.19,103.497 157.857,103.663 155.5,103.5C 151.397,102.355 147.397,101.021 143.5,99.5C 142.089,97.461 140.089,96.461 137.5,96.5C 136.508,96.6716 135.842,96.3382 135.5,95.5C 135.5,94.5 135.5,93.5 135.5,92.5C 143.539,94.9574 151.539,97.624 159.5,100.5C 163.824,91.0411 167.491,81.2078 170.5,71C 170.355,70.228 170.022,69.5613 169.5,69C 162.047,66.4388 154.714,63.6054 147.5,60.5C 147.833,59.5 148.5,58.8333 149.5,58.5C 150.687,59.6527 151.687,59.6527 152.5,58.5 Z"/></g>
<g><path style="opacity:0.886" fill="#251e3a" d="M 182.5,58.5 C 183.167,58.5 183.833,58.5 184.5,58.5C 184.5,59.1667 184.833,59.5 185.5,59.5C 187.229,60.2362 188.229,61.5695 188.5,63.5C 188.217,64.2891 187.717,64.9558 187,65.5C 185.698,64.9152 184.531,64.2485 183.5,63.5C 182.699,61.9582 182.366,60.2915 182.5,58.5 Z"/></g>
<g><path style="opacity:0.035" fill="#a4825e" d="M 207.5,57.5 C 206.599,59.7271 204.933,60.7271 202.5,60.5C 203.899,59.1103 205.566,58.1103 207.5,57.5 Z"/></g>
<g><path style="opacity:0.486" fill="#a0865b" d="M 184.5,56.5 C 186.795,57.1355 188.461,58.4689 189.5,60.5C 189.737,61.791 189.404,62.791 188.5,63.5C 188.229,61.5695 187.229,60.2362 185.5,59.5C 184.833,59.5 184.5,59.1667 184.5,58.5C 184.5,57.8333 184.5,57.1667 184.5,56.5 Z"/></g>
<g><path style="opacity:0.979" fill="#3b3242" d="M 212.5,58.5 C 214.385,60.0532 215.385,62.0532 215.5,64.5C 213.177,65.2345 211.01,64.5678 209,62.5C 208.153,59.5096 209.32,58.1762 212.5,58.5 Z"/></g>
<g><path style="opacity:0.998" fill="#1e5e45" d="M 152.5,58.5 C 151.687,59.6527 150.687,59.6527 149.5,58.5C 148.5,58.8333 147.833,59.5 147.5,60.5C 154.714,63.6054 162.047,66.4388 169.5,69C 170.022,69.5613 170.355,70.228 170.5,71C 167.491,81.2078 163.824,91.0411 159.5,100.5C 151.539,97.624 143.539,94.9574 135.5,92.5C 135.5,93.5 135.5,94.5 135.5,95.5C 134.387,94.0536 134.22,92.3869 135,90.5C 139.261,79.9911 142.928,69.3244 146,58.5C 148.163,57.232 150.33,57.232 152.5,58.5 Z"/></g>
<g><path style="opacity:0.675" fill="#776650" d="M 178.5,61.5 C 178.389,62.1174 178.056,62.6174 177.5,63C 174.833,63.6667 172.167,63.6667 169.5,63C 168.944,62.6174 168.611,62.1174 168.5,61.5C 171.53,62.4144 174.863,62.4144 178.5,61.5 Z"/></g>
<g><path style="opacity:0.404" fill="#8d7756" d="M 213.5,57.5 C 217.073,62.5177 221.573,63.5177 227,60.5C 227.399,60.7284 227.565,61.0618 227.5,61.5C 225.883,62.9723 223.883,63.639 221.5,63.5C 219.9,63.4493 218.4,63.1159 217,62.5C 216.722,63.4158 216.222,64.0825 215.5,64.5C 215.385,62.0532 214.385,60.0532 212.5,58.5C 213.167,58.5 213.5,58.1667 213.5,57.5 Z"/></g>
<g><path style="opacity:0.994" fill="#15638e" d="M 260.5,90.5 C 260.5,90.8333 260.5,91.1667 260.5,91.5C 252.069,94.3533 243.736,97.3533 235.5,100.5C 232.471,90.5793 229.137,80.746 225.5,71C 225.82,69.3468 226.82,68.3468 228.5,68C 235.487,65.8403 242.154,63.007 248.5,59.5C 246.955,58.5481 245.288,58.2148 243.5,58.5C 245.049,56.5946 246.882,56.2613 249,57.5C 253.406,68.309 257.239,79.309 260.5,90.5 Z"/></g>
<g><path style="opacity:0.655" fill="#5c5443" d="M 165.5,63.5 C 169.102,63.6924 172.102,65.0257 174.5,67.5C 171.053,66.917 168.053,65.5837 165.5,63.5 Z"/></g>
<g><path style="opacity:0.999" fill="#ceac66" d="M 198.5,67.5 C 204.702,68.1006 210.035,70.6006 214.5,75C 217.849,75.3876 221.183,75.2209 224.5,74.5C 225.81,81.2492 227.81,87.7492 230.5,94C 229.246,97.2026 226.913,98.2026 223.5,97C 215.869,89.8568 207.869,83.1902 199.5,77C 198.167,76.3333 196.833,76.3333 195.5,77C 191.61,79.9465 187.277,81.7798 182.5,82.5C 183.091,79.3864 184.758,76.8864 187.5,75C 191.345,72.637 195.011,70.137 198.5,67.5 Z"/></g>
<g><path style="opacity:0.294" fill="#715f4c" d="M 193.5,66.5 C 192.878,68.335 191.544,69.5017 189.5,70C 188.251,70.7401 187.251,70.5735 186.5,69.5C 188.649,68.2638 190.982,67.2638 193.5,66.5 Z"/></g>
<g><path style="opacity:0.999" fill="#ceac66" d="M 172.5,74.5 C 175.85,74.335 179.183,74.5017 182.5,75C 178.99,78.048 178.657,81.3813 181.5,85C 183.833,85.6667 186.167,85.6667 188.5,85C 191.156,83.0896 193.989,81.5896 197,80.5C 198.627,80.6251 200.127,81.1251 201.5,82C 205.833,85.6667 210.167,89.3333 214.5,93C 217.883,96.0467 220.883,99.38 223.5,103C 222.941,105.188 221.607,105.854 219.5,105C 215.167,101.333 210.833,97.6667 206.5,94C 205.552,93.5172 204.552,93.3505 203.5,93.5C 203.351,94.552 203.517,95.552 204,96.5C 208.333,100.167 212.667,103.833 217,107.5C 217.833,110.667 216.667,111.833 213.5,111C 209.661,107.991 205.994,104.824 202.5,101.5C 201.311,100.571 199.978,100.238 198.5,100.5C 201.541,105.052 205.207,109.219 209.5,113C 209.333,114.5 208.5,115.333 207,115.5C 202.154,113.321 198.654,109.821 196.5,105C 191.649,100.799 186.315,97.466 180.5,95C 178.833,94.3333 177.167,94.3333 175.5,95C 173.246,98.5852 170.246,99.4185 166.5,97.5C 167.612,89.6067 169.612,81.9401 172.5,74.5 Z"/></g>
<g><path style="opacity:0.676" fill="#7d664f" d="M 260.5,90.5 C 261.613,91.9464 261.78,93.6131 261,95.5C 258.579,97.6966 255.745,99.03 252.5,99.5C 254.676,97.4848 257.176,95.8181 260,94.5C 260.483,93.552 260.649,92.552 260.5,91.5C 260.5,91.1667 260.5,90.8333 260.5,90.5 Z"/></g>
<g><path style="opacity:0.486" fill="#9a825b" d="M 137.5,96.5 C 140.089,96.461 142.089,97.461 143.5,99.5C 141.181,99.0075 139.181,98.0075 137.5,96.5 Z"/></g>
<g><path style="opacity:0.998" fill="#bd9d62" d="M 176.5,97.5 C 179.68,97.1762 180.847,98.5096 180,101.5C 178.497,104.94 175.997,106.94 172.5,107.5C 172.731,103.707 174.065,100.374 176.5,97.5 Z"/></g>
<g><path style="opacity:0.145" fill="#98825b" d="M 232.5,102.5 C 231.105,101.185 230.105,101.519 229.5,103.5C 228.475,103.103 228.308,102.437 229,101.5C 230.756,100.015 231.923,100.348 232.5,102.5 Z"/></g>
<g><path style="opacity:0.999" fill="#c2a263" d="M 183.5,101.5 C 184.833,101.5 186.167,101.5 187.5,101.5C 187.657,102.873 187.49,104.207 187,105.5C 185.615,106.551 184.615,107.884 184,109.5C 182.89,111.037 181.39,111.703 179.5,111.5C 179.343,110.127 179.51,108.793 180,107.5C 181.442,105.609 182.609,103.609 183.5,101.5 Z"/></g>
<g><path style="opacity:0.408" fill="#6a5b4b" d="M 168.5,101.5 C 165.512,102.438 162.678,103.771 160,105.5C 158.124,105.475 156.624,104.809 155.5,103.5C 157.857,103.663 160.19,103.497 162.5,103C 163.956,99.2249 165.956,98.7249 168.5,101.5 Z"/></g>
<g><path style="opacity:0.999" fill="#be9e62" d="M 190.5,105.5 C 191.5,105.5 192.5,105.5 193.5,105.5C 193.193,110.806 190.526,114.139 185.5,115.5C 186.282,111.72 187.948,108.387 190.5,105.5 Z"/></g>
<g><path style="opacity:0.078" fill="#c6ab62" d="M 228.5,106.5 C 228.027,107.906 227.027,108.573 225.5,108.5C 225.973,107.094 226.973,106.427 228.5,106.5 Z"/></g>
<g><path style="opacity:0.992" fill="#c4a463" d="M 194.5,112.5 C 197.084,112.569 199.084,113.735 200.5,116C 196.78,117.392 194.78,116.225 194.5,112.5 Z"/></g>
<g><path style="opacity:0.671" fill="#6c5c4d" d="M 176.5,114.5 C 181.037,115.72 185.37,117.387 189.5,119.5C 188.054,120.613 186.387,120.78 184.5,120C 182.092,117.602 179.426,115.769 176.5,114.5 Z"/></g>
<g><path style="opacity:0.263" fill="#987d56" d="M 189.5,119.5 C 192.845,118.104 195.845,118.77 198.5,121.5C 195.426,121.127 192.426,120.461 189.5,119.5 Z"/></g>
<g><path style="opacity:0.293" fill="#7b6750" d="M 211.5,118.5 C 211.389,119.117 211.056,119.617 210.5,120C 207.146,120.455 203.813,120.955 200.5,121.5C 201.848,120.399 203.348,119.399 205,118.5C 207.12,119.605 209.287,119.605 211.5,118.5 Z"/></g>
<g><path style="opacity:0.994" fill="#141335" d="M 69.5,130.5 C 71.5,130.5 72.5,131.5 72.5,133.5C 72.1667,134.833 71.8333,136.167 71.5,137.5C 66.8775,138.592 65.0442,136.925 66,132.5C 67.3024,131.915 68.469,131.249 69.5,130.5 Z"/></g>
<g><path style="opacity:0.047" fill="#ba9e5c" d="M 72.5,133.5 C 73.8528,135.128 73.5195,136.462 71.5,137.5C 71.8333,136.167 72.1667,134.833 72.5,133.5 Z"/></g>
<g><path style="opacity:0.588" fill="#af955e" d="M 69.5,130.5 C 68.469,131.249 67.3024,131.915 66,132.5C 65.0442,136.925 66.8775,138.592 71.5,137.5C 68.7417,138.967 69.075,139.633 72.5,139.5C 72.8245,146.687 72.4912,153.687 71.5,160.5C 71.5,153.833 71.5,147.167 71.5,140.5C 69.0504,140.298 66.717,140.631 64.5,141.5C 64.8807,140.069 65.8807,139.236 67.5,139C 63.1339,137.238 62.4673,134.571 65.5,131C 66.7932,130.51 68.1266,130.343 69.5,130.5 Z"/></g>
<g><path style="opacity:0.966" fill="#171536" d="M 103.5,147.5 C 104.338,147.842 104.672,148.508 104.5,149.5C 107.118,153.291 109.951,156.957 113,160.5C 113.333,154.167 113.667,147.833 114,141.5C 116.041,140.577 118.208,140.244 120.5,140.5C 121.821,152.039 121.821,163.706 120.5,175.5C 119.277,176.614 117.944,176.781 116.5,176C 110.957,170.126 105.79,163.959 101,157.5C 100.501,163.491 100.334,169.491 100.5,175.5C 97.8333,175.5 95.1667,175.5 92.5,175.5C 92.3335,163.829 92.5001,152.162 93,140.5C 94.0495,139.483 95.2161,139.316 96.5,140C 98.3329,142.998 100.666,145.498 103.5,147.5 Z"/></g>
<g><path style="opacity:0.603" fill="#cbab62" d="M 131.5,140.5 C 129.167,140.5 126.833,140.5 124.5,140.5C 124.5,141.5 124.5,142.5 124.5,143.5C 123.609,142.739 122.942,141.739 122.5,140.5C 125.645,139.197 128.645,139.197 131.5,140.5 Z"/></g>
<g><path style="opacity:0.603" fill="#c8a764" d="M 158.5,140.5 C 155.162,140.065 152.162,140.732 149.5,142.5C 149.414,141.504 149.748,140.671 150.5,140C 153.367,139.199 156.034,139.366 158.5,140.5 Z"/></g>
<g><path style="opacity:0.678" fill="#d1af67" d="M 188.5,140.5 C 179.235,139.905 170.235,140.572 161.5,142.5C 161.5,141.5 161.5,140.5 161.5,139.5C 170.682,139.173 179.682,139.507 188.5,140.5 Z"/></g>
<g><path style="opacity:0.977" fill="#131335" d="M 205.5,139.5 C 206.833,139.5 208.167,139.5 209.5,139.5C 211.954,140.621 214.621,141.454 217.5,142C 218.423,144.041 218.756,146.208 218.5,148.5C 217.368,149.354 216.035,149.354 214.5,148.5C 214.389,147.883 214.056,147.383 213.5,147C 208.816,145.898 204.483,146.564 200.5,149C 200.728,149.399 201.062,149.565 201.5,149.5C 201.574,151.411 202.574,152.578 204.5,153C 208.767,153.189 212.767,154.023 216.5,155.5C 217.402,157.341 218.736,158.674 220.5,159.5C 223.183,170.453 218.849,176.12 207.5,176.5C 205.182,176.003 202.848,175.67 200.5,175.5C 198.604,174.519 196.604,173.519 194.5,172.5C 193.526,170.257 193.192,167.924 193.5,165.5C 195.216,165.629 196.883,165.962 198.5,166.5C 202.93,169.918 207.764,170.252 213,167.5C 213.743,165.559 213.576,163.726 212.5,162C 209.312,160.684 205.978,160.184 202.5,160.5C 201.5,160.5 200.5,160.5 199.5,160.5C 199.306,158.088 197.973,157.088 195.5,157.5C 193.896,156.713 193.229,155.38 193.5,153.5C 193.601,145.404 197.601,140.738 205.5,139.5 Z"/></g>
<g><path style="opacity:0.63" fill="#c5a564" d="M 222.5,140.5 C 231.986,139.506 241.652,139.173 251.5,139.5C 252.845,147.511 249.512,150.511 241.5,148.5C 241.5,147.833 241.167,147.5 240.5,147.5C 243.625,146.521 246.958,146.187 250.5,146.5C 250.5,144.5 250.5,142.5 250.5,140.5C 241.167,140.5 231.833,140.5 222.5,140.5 Z"/></g>
<g><path style="opacity:0.998" fill="#111235" d="M 311.5,139.5 C 314.19,141.193 316.19,143.527 317.5,146.5C 318.08,148.749 319.413,150.415 321.5,151.5C 323.063,152.945 324.396,154.611 325.5,156.5C 325.312,158.103 325.812,159.437 327,160.5C 327.5,153.842 327.666,147.175 327.5,140.5C 329.833,140.5 332.167,140.5 334.5,140.5C 334.667,151.838 334.5,163.172 334,174.5C 333.439,175.022 332.772,175.355 332,175.5C 330.493,174.445 328.993,173.445 327.5,172.5C 325.817,171.147 324.484,169.48 323.5,167.5C 323.912,165.027 322.912,163.694 320.5,163.5C 319.599,162.71 318.932,161.71 318.5,160.5C 317.297,158.605 316.131,156.605 315,154.5C 314.5,161.492 314.334,168.492 314.5,175.5C 312.5,175.5 310.5,175.5 308.5,175.5C 308.5,163.5 308.5,151.5 308.5,139.5C 309.5,139.5 310.5,139.5 311.5,139.5 Z"/></g>
<g><path style="opacity:0.987" fill="#201a39" d="M 131.5,140.5 C 135.421,146.681 138.588,153.347 141,160.5C 142.245,157.676 143.745,155.009 145.5,152.5C 147.138,151.295 147.471,149.962 146.5,148.5C 147.877,146.711 148.877,144.711 149.5,142.5C 152.162,140.732 155.162,140.065 158.5,140.5C 159.043,140.56 159.376,140.893 159.5,141.5C 156.546,148.199 153.546,154.866 150.5,161.5C 148.461,162.911 147.461,164.911 147.5,167.5C 147.737,168.791 147.404,169.791 146.5,170.5C 145.263,171.965 144.263,173.632 143.5,175.5C 141.5,175.5 139.5,175.5 137.5,175.5C 135.717,171.692 134.384,167.692 133.5,163.5C 133.206,160.246 131.873,157.579 129.5,155.5C 127.444,151.667 125.778,147.667 124.5,143.5C 124.5,142.5 124.5,141.5 124.5,140.5C 126.833,140.5 129.167,140.5 131.5,140.5 Z"/></g>
<g><path style="opacity:0.988" fill="#161336" d="M 188.5,140.5 C 188.5,142.5 188.5,144.5 188.5,146.5C 181.978,146.177 175.645,146.51 169.5,147.5C 169.5,149.5 169.5,151.5 169.5,153.5C 175.69,153.177 181.69,153.51 187.5,154.5C 187.5,156.5 187.5,158.5 187.5,160.5C 183.682,160.091 179.848,159.757 176,159.5C 173.39,159.533 171.223,160.2 169.5,161.5C 169.325,163.621 169.659,165.621 170.5,167.5C 175.403,168.5 181.07,168.833 187.5,168.5C 187.5,170.833 187.5,173.167 187.5,175.5C 178.808,175.831 170.141,175.498 161.5,174.5C 160.27,164.024 160.27,153.358 161.5,142.5C 170.235,140.572 179.235,139.905 188.5,140.5 Z"/></g>
<g><path style="opacity:0.616" fill="#9f865b" d="M 209.5,139.5 C 212.607,139.351 215.607,139.851 218.5,141C 219.814,143.605 219.814,146.105 218.5,148.5C 218.756,146.208 218.423,144.041 217.5,142C 214.621,141.454 211.954,140.621 209.5,139.5 Z"/></g>
<g><path style="opacity:0.989" fill="#090b33" d="M 222.5,140.5 C 231.833,140.5 241.167,140.5 250.5,140.5C 250.5,142.5 250.5,144.5 250.5,146.5C 246.958,146.187 243.625,146.521 240.5,147.5C 239.506,156.652 239.173,165.985 239.5,175.5C 237.833,175.5 236.167,175.5 234.5,175.5C 233.527,165.916 233.194,156.25 233.5,146.5C 232.167,146.5 230.833,146.5 229.5,146.5C 227.167,146.5 224.833,146.5 222.5,146.5C 222.5,144.5 222.5,142.5 222.5,140.5 Z"/></g>
<g><path style="opacity:0.991" fill="#141437" d="M 254.5,140.5 C 257.167,140.5 259.833,140.5 262.5,140.5C 262.5,152.167 262.5,163.833 262.5,175.5C 259.833,175.5 257.167,175.5 254.5,175.5C 254.5,163.833 254.5,152.167 254.5,140.5 Z"/></g>
<g><path style="opacity:0.978" fill="#1c1738" d="M 306.5,141.5 C 306.5,142.5 306.5,143.5 306.5,144.5C 305.833,144.5 305.5,144.833 305.5,145.5C 301.936,146.423 298.269,146.756 294.5,146.5C 293.167,154.833 293.167,163.167 294.5,171.5C 295.434,172.568 295.768,173.901 295.5,175.5C 292.833,175.5 290.167,175.5 287.5,175.5C 287.5,165.833 287.5,156.167 287.5,146.5C 283.833,146.5 280.167,146.5 276.5,146.5C 276.5,144.167 276.5,141.833 276.5,139.5C 286.172,139.334 295.839,139.5 305.5,140C 306.056,140.383 306.389,140.883 306.5,141.5 Z"/></g>
<g><path style="opacity:0.989" fill="#0a0b33" d="M 71.5,160.5 C 69.3792,160.675 67.3792,160.341 65.5,159.5C 65.8205,154.305 65.4872,149.305 64.5,144.5C 64.5,143.5 64.5,142.5 64.5,141.5C 66.717,140.631 69.0504,140.298 71.5,140.5C 71.5,147.167 71.5,153.833 71.5,160.5 Z"/></g>
<g><path style="opacity:0.999" fill="#2d5e46" d="M 79.5,140.5 C 85.3294,140 87.6627,142.666 86.5,148.5C 78.1108,150.892 75.7775,148.225 79.5,140.5 Z"/></g>
<g><path style="opacity:0.6" fill="#9e8359" d="M 205.5,139.5 C 197.601,140.738 193.601,145.404 193.5,153.5C 191.913,144.401 195.913,139.735 205.5,139.5 Z"/></g>
<g><path style="opacity:0.702" fill="#9e945d" d="M 79.5,140.5 C 84.1624,138.305 87.1624,139.805 88.5,145C 88.1918,146.459 87.5251,147.626 86.5,148.5C 87.6627,142.666 85.3294,140 79.5,140.5 Z"/></g>
<g><path style="opacity:0.363" fill="#c2a262" d="M 103.5,147.5 C 100.666,145.498 98.3329,142.998 96.5,140C 95.2161,139.316 94.0495,139.483 93,140.5C 92.5001,152.162 92.3335,163.829 92.5,175.5C 91.3403,163.674 91.1737,151.674 92,139.5C 93.7261,138.424 95.5594,138.257 97.5,139C 99.8882,141.629 101.888,144.462 103.5,147.5 Z"/></g>
<g><path style="opacity:0.596" fill="#ab8d5d" d="M 188.5,140.5 C 189.468,142.607 189.802,144.941 189.5,147.5C 182.811,148.571 176.145,148.571 169.5,147.5C 175.645,146.51 181.978,146.177 188.5,146.5C 188.5,144.5 188.5,142.5 188.5,140.5 Z"/></g>
<g><path style="opacity:0.008" fill="#867259" d="M 214.5,148.5 C 209.959,146.897 205.626,147.23 201.5,149.5C 201.062,149.565 200.728,149.399 200.5,149C 204.483,146.564 208.816,145.898 213.5,147C 214.056,147.383 214.389,147.883 214.5,148.5 Z"/></g>
<g><path style="opacity:0.094" fill="#c2a464" d="M 222.5,146.5 C 224.833,146.5 227.167,146.5 229.5,146.5C 230.5,147.167 231.5,147.833 232.5,148.5C 229.813,148.664 227.146,148.497 224.5,148C 223.584,147.722 222.918,147.222 222.5,146.5 Z"/></g>
<g><path style="opacity:0.556" fill="#79664f" d="M 276.5,146.5 C 280.167,146.5 283.833,146.5 287.5,146.5C 287.5,156.167 287.5,165.833 287.5,175.5C 286.507,166.682 286.173,157.682 286.5,148.5C 283.813,148.664 281.146,148.497 278.5,148C 277.584,147.722 276.918,147.222 276.5,146.5 Z"/></g>
<g><path style="opacity:0.647" fill="#928154" d="M 317.5,146.5 C 319.587,147.585 320.92,149.251 321.5,151.5C 319.413,150.415 318.08,148.749 317.5,146.5 Z"/></g>
<g><path style="opacity:0.596" fill="#685a4b" d="M 327.5,172.5 C 328.993,173.445 330.493,174.445 332,175.5C 332.772,175.355 333.439,175.022 334,174.5C 334.5,163.172 334.667,151.838 334.5,140.5C 332.167,140.5 329.833,140.5 327.5,140.5C 327.666,147.175 327.5,153.842 327,160.5C 325.812,159.437 325.312,158.103 325.5,156.5C 326.489,151.025 326.822,145.358 326.5,139.5C 329.5,139.5 332.5,139.5 335.5,139.5C 335.832,151.851 335.499,164.185 334.5,176.5C 331.049,177.439 328.715,176.106 327.5,172.5 Z"/></g>
<g><path style="opacity:0.271" fill="#c5ab59" d="M 146.5,148.5 C 147.471,149.962 147.138,151.295 145.5,152.5C 145.433,151.041 145.766,149.708 146.5,148.5 Z"/></g>
<g><path style="opacity:0.777" fill="#12413f" d="M 294.5,146.5 C 294.833,147.167 295.167,147.833 295.5,148.5C 295.799,156.253 295.466,163.92 294.5,171.5C 293.167,163.167 293.167,154.833 294.5,146.5 Z"/></g>
<g><path style="opacity:0.639" fill="#57585b" d="M 64.5,144.5 C 65.4872,149.305 65.8205,154.305 65.5,159.5C 64.6257,158.275 63.9591,156.275 63.5,153.5C 63.2754,150.627 63.6087,147.627 64.5,144.5 Z"/></g>
<g><path style="opacity:0.979" fill="#0d0f34" d="M 78.5,153.5 C 80.8333,153.5 83.1667,153.5 85.5,153.5C 85.5,160.833 85.5,168.167 85.5,175.5C 83.1667,175.5 80.8333,175.5 78.5,175.5C 78.5,168.167 78.5,160.833 78.5,153.5 Z"/></g>
<g><path style="opacity:0.785" fill="#806c54" d="M 85.5,175.5 C 85.5,168.167 85.5,160.833 85.5,153.5C 83.1667,153.5 80.8333,153.5 78.5,153.5C 81.2244,151.062 84.2244,150.895 87.5,153C 87.4365,159.778 87.4365,166.611 87.5,173.5C 87.1445,174.522 86.4778,175.189 85.5,175.5 Z"/></g>
<g><path style="opacity:0.6" fill="#73604e" d="M 120.5,140.5 C 118.208,140.244 116.041,140.577 114,141.5C 113.667,147.833 113.333,154.167 113,160.5C 109.951,156.957 107.118,153.291 104.5,149.5C 107.422,151.594 109.922,154.261 112,157.5C 112.499,151.509 112.666,145.509 112.5,139.5C 115.385,139.194 118.052,139.527 120.5,140.5 Z"/></g>
<g><path style="opacity:0.043" fill="#ae945e" d="M 216.5,155.5 C 218.833,155.833 220.167,157.167 220.5,159.5C 218.736,158.674 217.402,157.341 216.5,155.5 Z"/></g>
<g><path style="opacity:0.688" fill="#625349" d="M 311.5,139.5 C 310.5,139.5 309.5,139.5 308.5,139.5C 308.5,151.5 308.5,163.5 308.5,175.5C 307.883,175.389 307.383,175.056 307,174.5C 306.667,165.167 306.333,155.833 306,146.5C 305.5,147 305,147.5 304.5,148C 301.518,148.498 298.518,148.665 295.5,148.5C 295.167,147.833 294.833,147.167 294.5,146.5C 298.269,146.756 301.936,146.423 305.5,145.5C 306.167,145.5 306.5,145.167 306.5,144.5C 306.5,143.5 306.5,142.5 306.5,141.5C 307.404,140.791 307.737,139.791 307.5,138.5C 309.099,138.232 310.432,138.566 311.5,139.5 Z"/></g>
<g><path style="opacity:0.361" fill="#7e725c" d="M 195.5,157.5 C 197.973,157.088 199.306,158.088 199.5,160.5C 197.77,159.974 196.436,158.974 195.5,157.5 Z"/></g>
<g><path style="opacity:0.502" fill="#887254" d="M 129.5,155.5 C 131.873,157.579 133.206,160.246 133.5,163.5C 131.613,161.211 130.279,158.545 129.5,155.5 Z"/></g>
<g><path style="opacity:0.447" fill="#5b5148" d="M 187.5,154.5 C 188.468,156.607 188.802,158.941 188.5,161.5C 182.167,161.5 175.833,161.5 169.5,161.5C 171.223,160.2 173.39,159.533 176,159.5C 179.848,159.757 183.682,160.091 187.5,160.5C 187.5,158.5 187.5,156.5 187.5,154.5 Z"/></g>
<g><path style="opacity:0.582" fill="#64564a" d="M 229.5,146.5 C 230.833,146.5 232.167,146.5 233.5,146.5C 233.194,156.25 233.527,165.916 234.5,175.5C 232.529,166.895 231.862,157.895 232.5,148.5C 231.5,147.833 230.5,147.167 229.5,146.5 Z"/></g>
<g><path style="opacity:0.936" fill="#29213c" d="M 64.5,162.5 C 67.1667,162.5 69.8333,162.5 72.5,162.5C 72.5,166.833 72.5,171.167 72.5,175.5C 69.8333,175.5 67.1667,175.5 64.5,175.5C 63.1667,171.167 63.1667,166.833 64.5,162.5 Z"/></g>
<g><path style="opacity:0.596" fill="#927c56" d="M 150.5,161.5 C 150.346,163.97 149.346,165.97 147.5,167.5C 147.461,164.911 148.461,162.911 150.5,161.5 Z"/></g>
<g><path style="opacity:0.302" fill="#d8b468" d="M 254.5,140.5 C 257.287,139.523 260.287,139.19 263.5,139.5C 263.828,151.678 263.495,163.678 262.5,175.5C 262.5,163.833 262.5,152.167 262.5,140.5C 259.833,140.5 257.167,140.5 254.5,140.5 Z"/></g>
<g><path style="opacity:0.701" fill="#67574a" d="M 318.5,160.5 C 317.542,160.047 316.708,159.381 316,158.5C 315.827,164.348 315.327,170.015 314.5,175.5C 314.334,168.492 314.5,161.492 315,154.5C 316.131,156.605 317.297,158.605 318.5,160.5 Z"/></g>
<g><path style="opacity:0.729" fill="#8f7a52" d="M 320.5,163.5 C 322.912,163.694 323.912,165.027 323.5,167.5C 322.026,166.564 321.026,165.23 320.5,163.5 Z"/></g>
<g><path style="opacity:0.96" fill="#281f3b" d="M 270.5,165.5 C 278.053,164.882 280.386,168.049 277.5,175C 269.022,176.672 266.688,173.505 270.5,165.5 Z"/></g>
<g><path style="opacity:0.735" fill="#776450" d="M 170.5,167.5 C 176.833,167.5 183.167,167.5 189.5,167.5C 190.036,170.698 189.369,173.365 187.5,175.5C 187.5,173.167 187.5,170.833 187.5,168.5C 181.07,168.833 175.403,168.5 170.5,167.5 Z"/></g>
<g><path style="opacity:0.631" fill="#3f4142" d="M 240.5,147.5 C 241.167,147.5 241.5,147.833 241.5,148.5C 241.44,156.623 241.44,164.79 241.5,173C 241.316,174.376 240.649,175.209 239.5,175.5C 239.173,165.985 239.506,156.652 240.5,147.5 Z"/></g>
<g><path style="opacity:0.907" fill="#6b5b4b" d="M 202.5,160.5 C 205.978,160.184 209.312,160.684 212.5,162C 213.576,163.726 213.743,165.559 213,167.5C 207.764,170.252 202.93,169.918 198.5,166.5C 203.086,168.472 207.586,168.472 212,166.5C 212.684,165.216 212.517,164.049 211.5,163C 208.421,162.027 205.421,161.194 202.5,160.5 Z"/></g>
<g><path style="opacity:0.392" fill="#99845c" d="M 146.5,170.5 C 146.741,173.034 145.741,174.7 143.5,175.5C 144.263,173.632 145.263,171.965 146.5,170.5 Z"/></g>
<g><path style="opacity:0.11" fill="#ae9460" d="M 193.5,165.5 C 193.192,167.924 193.526,170.257 194.5,172.5C 196.604,173.519 198.604,174.519 200.5,175.5C 193.332,175.412 190.998,172.079 193.5,165.5 Z"/></g>
</svg>
