<?xml version="1.0" standalone="no"?>
<!DOCTYPE svg PUBLIC "-//W3C//DTD SVG 20010904//EN"
 "http://www.w3.org/TR/2001/REC-SVG-20010904/DTD/svg10.dtd">
<svg version="1.0" xmlns="http://www.w3.org/2000/svg"
 width="665.000000pt" height="375.000000pt" viewBox="0 0 665.000000 375.000000"
 preserveAspectRatio="xMidYMid meet">

<g transform="translate(0.000000,375.000000) scale(0.100000,-0.100000)"
fill="#000000" stroke="none">
<path d="M3196 3220 c-134 -52 -205 -220 -147 -345 23 -49 81 -108 130 -131
48 -23 131 -29 185 -14 67 18 150 97 171 161 21 62 16 158 -10 208 -60 117
-204 170 -329 121z m182 -49 c46 -24 97 -76 111 -114 17 -45 13 -124 -8 -166
-26 -51 -83 -99 -126 -107 -157 -29 -275 55 -275 196 0 150 169 258 298 191z"/>
<path d="M3280 3128 c0 -7 -15 -20 -33 -28 -57 -27 -62 -109 -8 -136 34 -17
42 -29 35 -48 -5 -12 -15 -16 -37 -14 -23 2 -31 -2 -38 -19 -7 -20 -4 -24 31
-34 22 -7 40 -18 40 -26 0 -7 9 -13 20 -13 11 0 20 6 20 14 0 8 10 18 23 22
77 23 75 124 -3 149 -14 5 -20 15 -20 36 0 28 2 30 29 24 23 -5 29 -2 34 15 5
21 -17 40 -46 40 -8 0 -17 7 -21 15 -7 18 -26 20 -26 3z m-2 -97 c3 -16 -1
-22 -10 -19 -7 3 -15 15 -16 27 -3 16 1 22 10 19 7 -3 15 -15 16 -27z m58
-120 c-13 -20 -26 -11 -26 16 0 25 1 26 16 11 9 -9 13 -21 10 -27z"/>
<path d="M3570 3185 c-24 -29 21 -60 48 -33 9 9 8 16 -5 30 -20 22 -27 22 -43
3z"/>
<path d="M2935 3064 c-20 -49 -19 -64 5 -64 21 0 55 63 46 87 -10 25 -36 13
-51 -23z"/>
<path d="M3595 3091 c-6 -10 35 -101 44 -101 4 0 13 5 21 10 12 8 11 15 -8 54
-20 43 -43 58 -57 37z"/>
<path d="M2850 2927 c-66 -33 -78 -148 -21 -199 56 -50 167 -32 189 31 8 22 8
32 -1 38 -6 3 -13 1 -15 -6 -2 -7 -14 -24 -27 -39 -33 -38 -97 -38 -131 1 -62
72 2 181 90 156 19 -6 34 -5 41 2 26 26 -77 40 -125 16z"/>
<path d="M3625 2907 c-55 -55 -58 -108 -10 -166 38 -45 86 -57 141 -36 63 24
78 53 75 139 -1 18 -13 40 -35 62 -30 30 -40 34 -86 34 -46 0 -56 -4 -85 -33z
m149 -28 c34 -41 33 -79 -3 -118 -39 -41 -87 -43 -126 -4 -24 24 -26 34 -22
72 6 55 34 81 87 81 30 0 44 -6 64 -31z"/>
<path d="M2889 2886 c-47 -23 -28 -76 28 -76 13 0 23 -4 23 -10 0 -5 -5 -10
-11 -10 -11 0 -39 -24 -39 -34 0 -11 46 -6 64 7 26 19 18 71 -11 75 -22 3 -33
32 -13 32 6 0 10 4 10 9 0 16 -26 20 -51 7z m11 -32 c0 -8 -4 -12 -10 -9 -5 3
-10 10 -10 16 0 5 5 9 10 9 6 0 10 -7 10 -16z"/>
<path d="M4045 2731 c-38 -15 -119 -47 -180 -70 -126 -49 -135 -55 -135 -86 0
-17 -10 -27 -41 -39 -46 -19 -31 -25 -209 83 -47 28 -93 51 -104 51 -18 0 -99
-42 -163 -85 -22 -16 -61 -25 -135 -34 -139 -17 -160 -14 -170 25 -7 28 -17
35 -85 62 -179 71 -280 105 -311 106 l-33 1 -64 -190 c-35 -104 -80 -235 -99
-289 -25 -70 -32 -104 -25 -112 6 -7 45 -25 87 -40 42 -15 128 -47 189 -71 62
-24 122 -43 134 -43 15 0 25 11 36 40 18 45 27 47 78 23 35 -17 36 -19 30 -59
-8 -57 8 -92 51 -110 19 -8 51 -30 70 -49 23 -24 44 -35 63 -35 19 0 34 -8 45
-24 19 -30 65 -41 109 -27 28 10 41 8 78 -9 49 -22 119 -26 137 -8 6 6 34 11
62 9 46 -2 54 1 86 33 21 21 46 36 59 36 27 0 81 42 90 70 4 11 15 20 27 20
32 0 88 63 88 98 0 21 8 37 27 52 32 25 36 24 66 -20 30 -45 42 -44 188 13 63
24 147 56 186 71 40 15 76 32 79 38 3 5 -8 44 -25 86 -29 74 -93 252 -148 412
-28 80 -39 100 -57 99 -6 0 -42 -13 -81 -28z m-554 -180 c114 -77 145 -88 200
-72 23 7 45 9 49 4 4 -4 33 -82 63 -173 l56 -165 -27 -22 c-15 -13 -34 -23
-42 -23 -13 0 -92 61 -190 148 -81 71 -228 186 -255 199 -30 14 -34 13 -129
-37 -106 -55 -149 -62 -154 -24 -4 26 57 75 242 191 28 18 62 33 75 33 14 0
64 -27 112 -59z m-457 -95 c-26 -26 -34 -42 -34 -70 0 -89 112 -110 214 -41
43 29 92 55 103 55 4 0 47 -33 94 -73 48 -39 115 -96 150 -125 35 -30 69 -59
74 -66 6 -6 34 -31 63 -54 57 -48 68 -83 31 -102 -25 -14 -32 -9 -161 98 -53
44 -104 84 -114 90 -26 13 -44 4 -44 -21 0 -21 55 -72 181 -170 49 -38 60 -62
37 -85 -22 -22 -43 -12 -157 84 -63 52 -121 94 -130 92 -9 -2 -17 -13 -19 -25
-2 -15 10 -31 45 -58 26 -20 71 -58 101 -86 45 -42 51 -52 42 -69 -10 -19 -60
-29 -60 -12 0 4 -31 30 -70 57 -41 30 -69 57 -70 68 0 28 -54 77 -84 77 -15 0
-26 6 -26 13 0 23 -46 58 -84 64 -21 3 -44 15 -55 29 -48 60 -139 45 -163 -28
-4 -12 -118 29 -118 43 0 7 90 270 111 327 8 20 15 22 93 22 l84 0 -34 -34z
m-19 -366 c17 -18 16 -21 -8 -62 -34 -58 -70 -90 -90 -82 -10 3 -17 15 -17 26
0 25 56 124 73 131 20 9 23 8 42 -13z m120 -70 c7 -22 -21 -77 -63 -122 -29
-31 -44 -35 -61 -14 -15 17 -7 36 46 109 37 50 67 61 78 27z m103 -79 c4 -25
-58 -125 -83 -135 -8 -3 -21 2 -30 10 -17 18 -9 38 45 112 34 47 63 53 68 13z
m100 -111 c42 -40 19 -61 -39 -35 -39 18 -49 41 -27 63 13 13 31 5 66 -28z"/>
<path d="M3056 2724 c-8 -20 -10 -17 32 -38 36 -18 62 -15 62 7 0 12 -59 47
-79 47 -5 0 -12 -7 -15 -16z"/>
<path d="M3523 2724 c-4 -11 2 -23 18 -35 28 -22 41 -23 56 -8 9 9 3 18 -23
35 -41 28 -43 29 -51 8z"/>
<path d="M1134 1532 c-42 -27 -9 -101 39 -88 15 3 31 15 37 27 22 41 -36 88
-76 61z"/>
<path d="M1576 1394 c-3 -9 -6 -139 -6 -290 l0 -274 55 0 55 0 0 171 0 170 38
-43 c20 -24 86 -106 146 -181 59 -75 114 -137 121 -137 32 0 35 26 33 301 l-3
274 -47 3 -48 3 0 -170 c0 -94 -4 -171 -8 -171 -8 0 -61 63 -127 149 -153 201
-193 238 -209 195z"/>
<path d="M5157 1403 c-4 -3 -7 -134 -7 -290 l0 -283 50 0 50 0 0 165 c0 96 4
165 9 165 6 0 29 -26 53 -59 162 -220 222 -292 242 -289 21 3 21 7 24 291 l2
287 -50 0 -50 0 0 -165 c0 -95 -4 -165 -9 -165 -9 0 -30 26 -154 190 -112 147
-140 174 -160 153z"/>
<path d="M1120 1240 l0 -150 45 0 45 0 0 150 0 150 -45 0 -45 0 0 -150z"/>
<path d="M1373 1379 c-43 -16 -45 -98 -2 -113 59 -21 100 17 85 78 -7 28 -51
47 -83 35z"/>
<path d="M2100 1380 c0 -5 17 -49 39 -97 57 -128 166 -383 181 -420 11 -30 16
-33 54 -33 l42 0 28 68 c16 37 42 99 58 137 17 39 38 88 49 110 34 72 99 228
99 237 0 5 -23 8 -52 6 -61 -4 -50 12 -139 -198 -33 -79 -67 -156 -74 -169
l-13 -25 -17 39 c-9 22 -37 90 -62 150 -25 61 -56 131 -69 158 -24 47 -25 47
-74 47 -28 0 -50 -4 -50 -10z"/>
<path d="M2730 1110 l0 -280 210 0 210 0 0 45 0 45 -42 1 c-24 0 -95 2 -158 2
l-115 2 0 70 0 70 150 5 150 5 0 40 0 40 -152 3 -153 3 0 64 0 65 155 0 155 0
0 50 0 50 -205 0 -205 0 0 -280z"/>
<path d="M3365 1377 c-56 -22 -73 -37 -95 -82 -17 -36 -21 -55 -16 -90 13 -83
77 -128 201 -141 39 -3 83 -13 98 -21 25 -13 28 -19 25 -56 -3 -37 -8 -44 -38
-60 -44 -23 -144 -17 -220 13 -28 11 -55 20 -61 20 -6 0 -9 -20 -7 -47 l3 -48
65 -22 c123 -42 272 -24 325 38 52 62 55 154 7 211 -34 40 -73 56 -158 64 -38
4 -84 13 -101 20 -28 11 -33 18 -33 47 0 21 7 41 20 52 28 26 112 31 189 11
34 -9 67 -16 72 -16 6 0 9 21 7 48 -3 47 -3 47 -48 59 -58 15 -196 15 -235 0z"/>
<path d="M3740 1340 l0 -50 85 0 85 0 0 -231 0 -230 53 3 52 3 3 227 2 227 83
3 82 3 0 45 0 45 -222 3 -223 2 0 -50z"/>
<path d="M4280 1110 l0 -280 50 0 50 0 0 280 0 280 -50 0 -50 0 0 -280z"/>
<path d="M4647 1383 c-4 -3 -7 -26 -7 -50 l0 -43 85 0 85 0 0 -230 0 -230 50
0 c48 0 49 1 55 34 4 19 5 121 3 227 l-3 194 88 3 87 3 0 49 0 50 -218 0
c-120 0 -222 -3 -225 -7z"/>
<path d="M1350 1005 l0 -175 50 0 50 0 0 175 0 175 -50 0 -50 0 0 -175z"/>
<path d="M1120 920 l0 -90 45 0 45 0 0 90 0 90 -45 0 -45 0 0 -90z"/>
<path d="M4527 932 c-25 -27 -22 -78 5 -96 48 -34 108 -4 108 53 0 53 -78 82
-113 43z"/>
<path d="M1930 615 c0 -39 4 -65 11 -65 6 0 9 25 8 65 -1 36 -6 65 -11 65 -4
0 -8 -29 -8 -65z"/>
<path d="M1300 657 c-31 -16 -39 -61 -14 -88 24 -26 69 -25 88 3 23 32 20 54
-10 77 -31 24 -31 25 -64 8z m58 -19 c18 -18 15 -56 -5 -66 -30 -16 -63 3 -63
37 0 38 41 56 68 29z"/>
<path d="M1430 609 c0 -38 4 -58 10 -54 6 4 8 10 5 15 -13 21 20 21 37 0 10
-12 21 -20 25 -17 3 4 1 13 -6 20 -9 11 -8 17 4 27 35 29 3 70 -56 70 -17 0
-19 -7 -19 -61z m65 21 c0 -8 -10 -16 -22 -18 -18 -3 -23 2 -23 18 0 16 5 21
23 18 12 -2 22 -10 22 -18z"/>
<path d="M1800 652 c-25 -20 -30 -63 -10 -87 15 -18 74 -20 88 -2 24 30 23 56
-2 82 -30 30 -46 31 -76 7z m70 -17 c10 -12 10 -21 2 -40 -19 -40 -82 -29 -82
15 0 37 55 55 80 25z"/>
<path d="M1991 625 c-1 -55 11 -75 44 -75 32 0 45 20 45 67 0 56 -18 56 -22 1
-2 -36 -7 -44 -25 -46 -23 -3 -28 6 -36 73 -3 18 -5 10 -6 -20z"/>
<path d="M2292 654 c-29 -20 -31 -79 -3 -94 31 -16 59 -12 75 12 22 31 20 38
-11 37 -23 0 -24 -2 -10 -8 17 -6 17 -8 3 -20 -19 -16 -46 -11 -60 12 -17 26
5 52 43 51 33 -2 42 10 15 20 -22 9 -27 8 -52 -10z"/>
<path d="M2490 610 l0 -60 40 0 c22 0 40 5 40 10 0 6 -16 10 -35 10 -24 0 -35
5 -35 15 0 10 10 15 30 15 17 0 30 5 30 10 0 6 -13 10 -30 10 -20 0 -30 5 -30
15 0 11 11 15 36 15 21 0 33 4 29 10 -3 6 -22 10 -41 10 l-34 0 0 -60z"/>
<path d="M2720 660 c0 -5 7 -10 15 -10 11 0 15 -12 15 -50 0 -27 5 -50 10 -50
6 0 10 23 10 50 0 44 3 50 21 50 11 0 17 5 14 10 -3 6 -24 10 -46 10 -21 0
-39 -4 -39 -10z"/>
<path d="M2837 663 c-11 -10 -8 -101 3 -108 6 -3 10 3 10 14 0 28 31 27 48 0
17 -26 28 -18 13 10 -7 13 -8 22 -1 26 17 10 11 44 -9 55 -22 11 -54 13 -64 3z
m68 -33 c0 -9 -11 -16 -27 -18 -23 -3 -28 1 -28 18 0 17 5 21 28 18 16 -2 27
-9 27 -18z"/>
<path d="M2968 653 c-2 -9 -1 -36 1 -60 3 -43 3 -43 42 -43 21 0 39 5 39 10 0
6 -13 10 -30 10 -20 0 -30 5 -30 15 0 8 9 15 19 15 11 0 23 5 26 10 4 6 -5 10
-19 10 -16 0 -26 6 -26 15 0 10 10 15 31 15 17 0 28 4 24 10 -11 17 -73 12
-77 -7z"/>
<path d="M3090 610 c0 -33 4 -60 10 -60 6 0 10 9 10 20 0 13 7 20 19 20 34 0
51 12 51 36 0 26 -26 44 -64 44 -25 0 -26 -2 -26 -60z m68 18 c3 -13 -3 -18
-22 -18 -20 0 -26 5 -26 21 0 15 5 20 22 17 13 -2 24 -11 26 -20z"/>
<path d="M3227 664 c-11 -11 -8 -114 3 -114 6 0 10 9 10 20 0 26 17 25 40 -2
10 -13 22 -20 26 -16 4 4 1 14 -5 22 -10 11 -9 19 1 35 9 16 10 26 2 39 -11
17 -64 29 -77 16z m63 -34 c0 -15 -7 -20 -25 -20 -18 0 -25 5 -25 20 0 15 7
20 25 20 18 0 25 -5 25 -20z"/>
<path d="M3354 656 c-3 -7 -4 -33 -2 -57 3 -44 3 -44 46 -47 25 -2 42 1 42 7
0 6 -16 11 -35 11 -24 0 -35 5 -35 15 0 9 9 15 24 15 14 0 28 5 31 10 4 6 -7
10 -24 10 -21 0 -31 5 -31 15 0 11 11 15 36 15 21 0 33 4 29 10 -9 15 -75 12
-81 -4z"/>
<path d="M3480 613 c0 -68 17 -87 22 -25 l3 37 23 -37 c13 -21 28 -38 33 -38
5 0 9 25 9 55 0 30 -4 55 -10 55 -5 0 -10 -14 -10 -32 l0 -31 -35 39 -34 39
-1 -62z"/>
<path d="M3614 656 c-3 -7 -4 -33 -2 -57 3 -44 3 -44 46 -47 25 -2 42 1 42 7
0 6 -16 11 -35 11 -24 0 -35 5 -35 15 0 9 9 15 24 15 14 0 28 5 31 10 4 6 -7
10 -24 10 -21 0 -31 5 -31 15 0 11 11 15 36 15 21 0 33 4 29 10 -9 15 -75 12
-81 -4z"/>
<path d="M3812 634 c-4 -76 -62 -89 -62 -14 0 22 -4 40 -10 40 -13 0 -13 -66
0 -91 6 -10 21 -19 33 -19 40 0 48 13 44 71 -3 46 -4 48 -5 13z"/>
<path d="M3867 664 c-11 -11 -8 -102 3 -109 6 -3 10 3 10 14 0 31 17 34 42 6
26 -30 45 -34 24 -4 -11 17 -12 25 -3 40 9 14 9 24 1 37 -11 17 -64 29 -77 16z
m63 -34 c0 -15 -7 -20 -25 -20 -18 0 -25 5 -25 20 0 15 7 20 25 20 18 0 25 -5
25 -20z"/>
<path d="M4008 659 c-27 -15 -21 -39 12 -52 17 -6 30 -17 30 -24 0 -8 -12 -13
-30 -13 -16 0 -30 -4 -30 -10 0 -5 15 -10 34 -10 26 0 36 5 41 20 8 25 -1 39
-32 51 -27 10 -22 29 8 29 11 0 17 5 14 10 -8 13 -25 12 -47 -1z"/>
<path d="M4156 622 c-14 -28 -26 -56 -26 -62 0 -18 18 -11 23 10 4 14 14 20
35 20 22 0 32 -6 37 -20 3 -11 11 -20 16 -20 12 0 -20 81 -42 104 -17 18 -18
17 -43 -32z m44 -8 c0 -16 -16 -19 -25 -4 -8 13 4 32 16 25 5 -4 9 -13 9 -21z"/>
<path d="M4413 663 c-8 -3 -13 -24 -13 -59 0 -53 1 -54 28 -54 35 0 62 27 62
62 0 35 -42 63 -77 51z m55 -47 c4 -28 -10 -46 -35 -46 -14 0 -18 61 -6 74 15
15 38 -1 41 -28z"/>
<path d="M4627 663 c-11 -10 -8 -101 3 -108 6 -4 10 8 10 29 0 20 5 36 10 36
6 0 10 -3 10 -7 0 -5 11 -21 25 -38 l24 -30 -1 60 c-1 34 -3 46 -5 28 -5 -36
-18 -43 -28 -14 -7 23 -40 53 -48 44z"/>
<path d="M4880 610 l0 -60 40 0 c22 0 40 5 40 10 0 6 -16 10 -35 10 -24 0 -35
5 -35 15 0 10 10 15 30 15 17 0 30 5 30 10 0 6 -13 10 -30 10 -20 0 -30 5 -30
15 0 10 11 15 35 15 19 0 35 5 35 10 0 6 -18 10 -40 10 l-40 0 0 -60z"/>
<path d="M5013 663 c-24 -9 -14 -42 17 -58 47 -24 39 -40 -19 -35 -14 1 -21
-2 -17 -9 9 -15 59 -14 74 1 20 20 13 38 -23 55 -38 18 -37 33 3 33 21 0 24 2
12 10 -16 10 -28 11 -47 3z"/>
<path d="M5095 660 c-3 -5 1 -10 9 -10 12 0 16 -11 16 -50 0 -27 5 -50 10 -50
6 0 10 23 10 50 0 45 2 50 23 50 18 0 19 2 7 10 -20 13 -67 13 -75 0z"/>
<path d="M5222 654 c-29 -20 -31 -79 -3 -94 27 -14 66 -13 79 3 24 30 23 56
-2 82 -29 29 -43 31 -74 9z m68 -24 c24 -44 -38 -83 -70 -45 -10 12 -10 21 -2
40 14 31 56 34 72 5z"/>
<path d="M5357 663 c-11 -10 -8 -113 3 -113 6 0 10 9 10 20 0 11 7 20 15 20 8
0 19 -9 25 -20 6 -11 15 -20 21 -20 6 0 5 8 -2 21 -8 15 -8 24 0 32 17 17 13
45 -8 57 -22 11 -54 13 -64 3z m61 -30 c-2 -10 -13 -19 -26 -21 -17 -3 -22 2
-22 17 0 16 6 21 26 21 19 0 25 -5 22 -17z"/>
<path d="M5496 655 c-20 -20 -10 -44 20 -51 37 -9 31 -37 -6 -32 -19 3 -29 1
-27 -6 2 -6 18 -12 35 -14 60 -6 60 50 0 71 -28 10 -21 27 10 27 21 0 24 2 12
10 -20 13 -26 12 -44 -5z"/>
<path d="M1161 603 c1 -32 4 -46 6 -30 4 22 9 27 34 27 16 0 29 5 29 10 0 6
-13 10 -30 10 -46 0 -39 28 8 33 l37 4 -42 1 -43 2 1 -57z"/>
<path d="M1684 635 c9 -13 16 -38 16 -55 0 -16 5 -30 10 -30 6 0 10 12 10 28
0 15 7 38 16 50 19 27 12 41 -11 22 -12 -10 -19 -10 -27 -2 -21 21 -31 13 -14
-13z"/>
<path d="M2130 605 c0 -30 5 -55 10 -55 6 0 10 16 10 35 0 19 4 35 8 35 5 0
16 -16 25 -35 25 -51 37 -43 36 23 -2 53 -2 54 -8 17 l-6 -40 -25 37 c-36 54
-50 49 -50 -17z"/>
<path d="M2612 603 c1 -47 2 -50 5 -18 l4 39 34 -39 34 -40 -1 60 c0 48 -2 53
-7 25 l-6 -35 -24 33 c-14 17 -28 32 -33 32 -4 0 -7 -26 -6 -57z"/>
<path d="M4282 603 c1 -43 2 -48 5 -20 2 20 7 37 11 37 4 0 17 -16 30 -36 12
-19 27 -32 32 -29 13 8 13 105 0 105 -5 0 -10 -15 -10 -32 l-1 -33 -27 33
c-15 18 -30 32 -34 32 -5 0 -7 -26 -6 -57z"/>
<path d="M4570 604 c0 -34 4 -53 10 -49 6 3 10 28 10 56 0 27 -4 49 -10 49 -5
0 -10 -25 -10 -56z"/>
<path d="M4756 638 c3 -12 13 -37 22 -57 l15 -36 23 50 c26 57 28 65 15 65 -5
0 -15 -16 -21 -35 -13 -40 -25 -38 -35 5 -4 17 -11 30 -16 30 -6 0 -7 -9 -3
-22z"/>
</g>
</svg>
